<svg xmlns="http://www.w3.org/2000/svg" viewBox="0 0 100 100">
  <title>L'Ingénieur</title>
  <circle cx="50" cy="50" r="48" fill="#1a0a02" stroke="#5a3a08" stroke-width="2"/>
  <path d="M50 18 A10 10 0 1 1 49.9 18 Z" fill="#e8c090"/>
  <path d="M35 32 L65 32 L68 78 L50 82 L32 78 Z" fill="#2a2a3a"/>
  <path d="M28 32 L35 32 L30 42 L20 42 Z M72 32 L65 32 L70 42 L80 42 Z" fill="#1a1a2a"/>
  <path d="M42 48 L58 48 L60 62 L50 68 L40 62 Z" fill="#2a2a3a"/>
  <path d="M50 50 A8 8 0 1 1 49.9 50 Z" fill="#e8b848"/>
  <path d="M50 55 A3 3 0 1 1 49.9 55 Z" fill="#1a0a02"/>
  <path d="M38 35 L42 35 M58 35 L62 35" fill="#808080"/>
</svg>