<svg xmlns="http://www.w3.org/2000/svg" viewBox="0 0 100 100">
  <title>Contacts Criminels</title>
  <circle cx="50" cy="50" r="48" fill="#1a0a02" stroke="#5a3a08" stroke-width="2"/>

  <!-- deux mains qui se serrent -->
  <path d="M20 55 L20 48 L34 44 L40 46 L46 42 L54 42 L54 50 L46 52 L42 50 L36 52 L36 60 Z" fill="#5a4020"/>
  <path d="M80 55 L80 48 L66 44 L60 46 L54 42 L46 42 L46 50 L54 52 L58 50 L64 52 L64 60 Z" fill="#5a4020"/>
  <!-- manchettes -->
  <rect x="16" y="56" width="24" height="10" fill="#2a1808" rx="2"/>
  <rect x="60" y="56" width="24" height="10" fill="#2a1808" rx="2"/>
  <!-- étoile crime -->
  <path d="M50 18 L52 24 L58 24 L53 28 L55 34 L50 30 L45 34 L47 28 L42 24 L48 24 Z" fill="#e8b848"/>
</svg>